<svg width="222" height="78" viewBox="0 0 222 78" fill="none" xmlns="http://www.w3.org/2000/svg">
<rect width="222" height="78" rx="2" fill="black"/>
<g clip-path="url(#clip0_547_450)">
<path d="M54.7906 57.0632V70.3359H47.3564V39.3057H54.5473V51.3359H54.8058C55.3328 49.9016 56.1943 48.7803 57.3902 47.9723C58.5963 47.1642 60.071 46.7602 61.8142 46.7602C63.4561 46.7602 64.8852 47.1238 66.1014 47.8511C67.3176 48.5682 68.2601 49.5834 68.929 50.8965C69.6081 52.2097 69.9426 53.745 69.9324 55.5026V70.3359H62.4983V56.9571C62.5085 55.6642 62.1841 54.6541 61.5254 53.9268C60.8666 53.1995 59.9392 52.8359 58.7433 52.8359C57.9629 52.8359 57.2737 53.0076 56.6757 53.3511C56.0879 53.6844 55.6267 54.1642 55.2923 54.7905C54.9679 55.4168 54.8007 56.1743 54.7906 57.0632Z" fill="white"/>
<path d="M81.1559 70.7297C79.666 70.7297 78.3433 70.4822 77.188 69.9873C76.0427 69.4822 75.1356 68.7246 74.4667 67.7146C73.8079 66.6944 73.4785 65.4166 73.4785 63.8813C73.4785 62.5883 73.7066 61.4974 74.1626 60.6085C74.6187 59.7197 75.2471 58.9974 76.0478 58.4419C76.8484 57.8863 77.7707 57.4671 78.8147 57.1843C79.8586 56.8913 80.9734 56.6944 82.1593 56.5933C83.487 56.4722 84.5563 56.3459 85.367 56.2146C86.1778 56.0732 86.7657 55.8762 87.1305 55.6237C87.5056 55.3611 87.693 54.9924 87.693 54.5176V54.4419C87.693 53.6641 87.4245 53.063 86.8873 52.6389C86.3501 52.2146 85.6255 52.0024 84.7133 52.0024C83.7302 52.0024 82.9397 52.2146 82.3417 52.6389C81.7437 53.063 81.3636 53.6489 81.2015 54.3964L74.3451 54.154C74.5478 52.7398 75.0697 51.4772 75.911 50.3661C76.7623 49.2449 77.9278 48.3661 79.4075 47.7297C80.8974 47.0833 82.6863 46.76 84.7741 46.76C86.264 46.76 87.6373 46.9368 88.8941 47.2903C90.1508 47.6338 91.2454 48.1389 92.1778 48.8055C93.1103 49.4621 93.8299 50.2701 94.3367 51.2297C94.8535 52.1893 95.112 53.2853 95.112 54.5176V70.3357H88.1187V67.0933H87.9363C87.5207 67.8813 86.9886 68.5479 86.34 69.0933C85.7014 69.6389 84.9465 70.0479 84.0748 70.3206C83.2133 70.5933 82.2404 70.7297 81.1559 70.7297ZM83.4515 65.8813C84.2521 65.8813 84.9718 65.7197 85.6103 65.3964C86.2589 65.0732 86.7758 64.6287 87.1609 64.063C87.5461 63.4873 87.7386 62.8206 87.7386 62.063V59.8509C87.5258 59.9621 87.2673 60.063 86.9633 60.154C86.6694 60.2449 86.345 60.3308 85.9903 60.4116C85.6356 60.4924 85.2708 60.563 84.8957 60.6237C84.5208 60.6843 84.161 60.7398 83.8163 60.7903C83.117 60.9014 82.5191 61.0732 82.0224 61.3055C81.536 61.5378 81.1609 61.8408 80.8975 62.2146C80.6441 62.5782 80.5173 63.0125 80.5173 63.5176C80.5173 64.2853 80.791 64.8711 81.3383 65.2752C81.8957 65.6792 82.6002 65.8813 83.4515 65.8813Z" fill="white"/>
<path d="M99.6572 70.3359V39.3057H107.091V51.0481H107.243C107.547 50.341 107.978 49.6592 108.536 49.0026C109.103 48.346 109.823 47.8106 110.694 47.3965C111.576 46.9723 112.63 46.7602 113.857 46.7602C115.478 46.7602 116.993 47.1844 118.402 48.0329C119.821 48.8814 120.966 50.1895 121.838 51.9571C122.71 53.7248 123.145 55.9773 123.145 58.7147C123.145 61.3511 122.725 63.5581 121.884 65.3359C121.052 67.1137 119.927 68.447 118.509 69.3359C117.1 70.2248 115.534 70.6692 113.811 70.6692C112.635 70.6692 111.617 70.4773 110.755 70.0935C109.894 69.7097 109.169 69.2046 108.581 68.5784C108.003 67.9521 107.558 67.2803 107.243 66.5632H107.015V70.3359H99.6572ZM106.939 58.6995C106.939 59.9521 107.106 61.043 107.441 61.9723C107.786 62.9016 108.277 63.6238 108.916 64.139C109.564 64.644 110.34 64.8965 111.242 64.8965C112.154 64.8965 112.929 64.644 113.568 64.139C114.206 63.6238 114.688 62.9016 115.012 61.9723C115.346 61.043 115.514 59.9521 115.514 58.6995C115.514 57.447 115.346 56.3612 115.012 55.442C114.688 54.5228 114.206 53.8106 113.568 53.3057C112.939 52.8006 112.164 52.5481 111.242 52.5481C110.33 52.5481 109.554 52.7955 108.916 53.2905C108.277 53.7854 107.786 54.4925 107.441 55.4117C107.106 56.3309 106.939 57.4268 106.939 58.6995Z" fill="white"/>
<path d="M127.041 70.3359V47.0632H134.476V70.3359H127.041ZM130.766 44.3511C129.722 44.3511 128.825 44.0077 128.075 43.3208C127.325 42.6238 126.95 41.7854 126.95 40.8057C126.95 39.8359 127.325 39.0077 128.075 38.3208C128.825 37.6238 129.722 37.2754 130.766 37.2754C131.82 37.2754 132.717 37.6238 133.457 38.3208C134.207 39.0077 134.582 39.8359 134.582 40.8057C134.582 41.7854 134.207 42.6238 133.457 43.3208C132.717 44.0077 131.82 44.3511 130.766 44.3511Z" fill="white"/>
<path d="M152.389 47.063V52.5176H137.657V47.063H152.389ZM140.743 41.4873H148.177V63.0176C148.177 63.4722 148.248 63.8408 148.39 64.1237C148.542 64.3964 148.76 64.5933 149.044 64.7146C149.328 64.8257 149.667 64.8813 150.063 64.8813C150.346 64.8813 150.645 64.856 150.96 64.8055C151.284 64.7449 151.527 64.6944 151.689 64.654L152.814 70.0024C152.459 70.1035 151.958 70.2297 151.309 70.3813C150.671 70.5327 149.906 70.6287 149.014 70.6691C147.27 70.75 145.775 70.5479 144.528 70.063C143.292 69.5681 142.344 68.8005 141.686 67.76C141.037 66.7197 140.723 65.4116 140.743 63.8357V41.4873Z" fill="white"/>
<path d="M176.276 54.1691L169.449 54.3509C169.379 53.8661 169.186 53.4368 168.871 53.063C168.558 52.6792 168.147 52.3813 167.641 52.1691C167.144 51.9469 166.566 51.8357 165.907 51.8357C165.046 51.8357 164.311 52.0075 163.703 52.3509C163.104 52.6944 162.811 53.159 162.821 53.7449C162.811 54.1994 162.993 54.5933 163.368 54.9267C163.754 55.26 164.438 55.5277 165.421 55.7297L169.92 56.5782C172.252 57.0227 173.985 57.76 175.12 58.7903C176.265 59.8206 176.843 61.1843 176.853 62.8813C176.843 64.4772 176.367 65.8661 175.424 67.0479C174.492 68.2297 173.215 69.1489 171.594 69.8055C169.971 70.4519 168.117 70.7752 166.029 70.7752C162.694 70.7752 160.064 70.0933 158.138 68.7297C156.224 67.356 155.128 65.5176 154.854 63.2146L162.197 63.0327C162.36 63.8813 162.781 64.5277 163.459 64.9722C164.139 65.4166 165.005 65.6389 166.059 65.6389C167.012 65.6389 167.787 65.4621 168.385 65.1085C168.983 64.7549 169.287 64.2853 169.298 63.6994C169.287 63.1741 169.054 62.7549 168.599 62.4419C168.142 62.1186 167.427 61.8661 166.454 61.6843L162.38 60.9116C160.039 60.4873 158.295 59.7045 157.15 58.563C156.005 57.4116 155.438 55.9469 155.448 54.1691C155.438 52.6135 155.853 51.2853 156.694 50.1843C157.536 49.0732 158.732 48.2246 160.283 47.6389C161.833 47.053 163.662 46.76 165.77 46.76C168.933 46.76 171.426 47.4216 173.25 48.7449C175.075 50.058 176.083 51.8661 176.276 54.1691Z" fill="white"/>
<path d="M55.703 7.66919H48.5679C46.8439 7.66919 45.4463 9.06208 45.4463 10.7803V17.8914C45.4463 19.6096 46.8439 21.0025 48.5679 21.0025H55.703C57.4271 21.0025 58.8247 19.6096 58.8247 17.8914V10.7803C58.8247 9.06208 57.4271 7.66919 55.703 7.66919Z" fill="#18181B" stroke="#27272A"/>
<path d="M73.5409 7.66919H66.4058C64.6818 7.66919 63.2842 9.06208 63.2842 10.7803V17.8914C63.2842 19.6096 64.6818 21.0025 66.4058 21.0025H73.5409C75.265 21.0025 76.6626 19.6096 76.6626 17.8914V10.7803C76.6626 9.06208 75.265 7.66919 73.5409 7.66919Z" fill="#4C1D95" stroke="#6D28D9"/>
<path d="M91.3788 7.66919H84.2437C82.5197 7.66919 81.1221 9.06208 81.1221 10.7803V17.8914C81.1221 19.6096 82.5197 21.0025 84.2437 21.0025H91.3788C93.1028 21.0025 94.5004 19.6096 94.5004 17.8914V10.7803C94.5004 9.06208 93.1028 7.66919 91.3788 7.66919Z" fill="#5B21B6" stroke="#7C3AED"/>
<path d="M109.216 7.66919H102.081C100.357 7.66919 98.959 9.06208 98.959 10.7803V17.8914C98.959 19.6096 100.357 21.0025 102.081 21.0025H109.216C110.94 21.0025 112.337 19.6096 112.337 17.8914V10.7803C112.337 9.06208 110.94 7.66919 109.216 7.66919Z" fill="#6D28D9" stroke="#8B5CF6"/>
<path d="M127.054 7.66919H119.918C118.194 7.66919 116.797 9.06208 116.797 10.7803V17.8914C116.797 19.6096 118.194 21.0025 119.918 21.0025H127.054C128.778 21.0025 130.175 19.6096 130.175 17.8914V10.7803C130.175 9.06208 128.778 7.66919 127.054 7.66919Z" fill="#7C3AED" stroke="#A78BFA"/>
<path d="M144.892 7.66919H137.756C136.032 7.66919 134.635 9.06208 134.635 10.7803V17.8914C134.635 19.6096 136.032 21.0025 137.756 21.0025H144.892C146.616 21.0025 148.013 19.6096 148.013 17.8914V10.7803C148.013 9.06208 146.616 7.66919 144.892 7.66919Z" fill="#8B5CF6" stroke="#C4B5FD"/>
</g>
<defs>
<clipPath id="clip0_547_450">
<rect width="132" height="64" fill="white" transform="translate(45 7)"/>
</clipPath>
</defs>
</svg>
