<svg width="222" height="78" viewBox="0 0 222 78" fill="none" xmlns="http://www.w3.org/2000/svg">
<rect width="222" height="78" rx="2" fill="black"/>
<g clip-path="url(#clip0_547_451)">
<path d="M54.7906 53.0632V66.3359H47.3564V35.3057H54.5473V47.3359H54.8058C55.3328 45.9016 56.1943 44.7803 57.3902 43.9723C58.5963 43.1642 60.071 42.7602 61.8142 42.7602C63.4561 42.7602 64.8852 43.1238 66.1014 43.8511C67.3176 44.5682 68.2601 45.5834 68.929 46.8965C69.6081 48.2097 69.9426 49.745 69.9324 51.5026V66.3359H62.4983V52.9571C62.5085 51.6642 62.1841 50.6541 61.5254 49.9268C60.8666 49.1995 59.9392 48.8359 58.7433 48.8359C57.9629 48.8359 57.2737 49.0076 56.6757 49.3511C56.0879 49.6844 55.6267 50.1642 55.2923 50.7905C54.9679 51.4168 54.8007 52.1743 54.7906 53.0632Z" fill="white"/>
<path d="M81.1559 66.7297C79.666 66.7297 78.3433 66.4822 77.188 65.9873C76.0427 65.4822 75.1356 64.7246 74.4667 63.7146C73.8079 62.6944 73.4785 61.4166 73.4785 59.8813C73.4785 58.5883 73.7066 57.4974 74.1626 56.6085C74.6187 55.7197 75.2471 54.9974 76.0478 54.4419C76.8484 53.8863 77.7707 53.4671 78.8147 53.1843C79.8586 52.8913 80.9734 52.6944 82.1593 52.5933C83.487 52.4722 84.5563 52.3459 85.367 52.2146C86.1778 52.0732 86.7657 51.8762 87.1305 51.6237C87.5056 51.3611 87.693 50.9924 87.693 50.5176V50.4419C87.693 49.6641 87.4245 49.063 86.8873 48.6389C86.3501 48.2146 85.6255 48.0024 84.7133 48.0024C83.7302 48.0024 82.9397 48.2146 82.3417 48.6389C81.7437 49.063 81.3636 49.6489 81.2015 50.3964L74.3451 50.154C74.5478 48.7398 75.0697 47.4772 75.911 46.3661C76.7623 45.2449 77.9278 44.3661 79.4075 43.7297C80.8974 43.0833 82.6863 42.76 84.7741 42.76C86.264 42.76 87.6373 42.9368 88.8941 43.2903C90.1508 43.6338 91.2454 44.1389 92.1778 44.8055C93.1103 45.4621 93.8299 46.2701 94.3367 47.2297C94.8535 48.1893 95.112 49.2853 95.112 50.5176V66.3357H88.1187V63.0933H87.9363C87.5207 63.8813 86.9886 64.5479 86.34 65.0933C85.7014 65.6389 84.9465 66.0479 84.0748 66.3206C83.2133 66.5933 82.2404 66.7297 81.1559 66.7297ZM83.4515 61.8813C84.2521 61.8813 84.9718 61.7197 85.6103 61.3964C86.2589 61.0732 86.7758 60.6287 87.1609 60.063C87.5461 59.4873 87.7386 58.8206 87.7386 58.063V55.8509C87.5258 55.9621 87.2673 56.063 86.9633 56.154C86.6694 56.2449 86.345 56.3308 85.9903 56.4116C85.6356 56.4924 85.2708 56.563 84.8957 56.6237C84.5208 56.6843 84.161 56.7398 83.8163 56.7903C83.117 56.9014 82.5191 57.0732 82.0224 57.3055C81.536 57.5378 81.1609 57.8408 80.8975 58.2146C80.6441 58.5782 80.5173 59.0125 80.5173 59.5176C80.5173 60.2853 80.791 60.8711 81.3383 61.2752C81.8957 61.6792 82.6002 61.8813 83.4515 61.8813Z" fill="white"/>
<path d="M99.6572 66.3359V35.3057H107.091V47.0481H107.243C107.547 46.341 107.978 45.6592 108.536 45.0026C109.103 44.346 109.823 43.8106 110.694 43.3965C111.576 42.9723 112.63 42.7602 113.857 42.7602C115.478 42.7602 116.993 43.1844 118.402 44.0329C119.821 44.8814 120.966 46.1895 121.838 47.9571C122.71 49.7248 123.145 51.9773 123.145 54.7147C123.145 57.3511 122.725 59.5581 121.884 61.3359C121.052 63.1137 119.927 64.447 118.509 65.3359C117.1 66.2248 115.534 66.6692 113.811 66.6692C112.635 66.6692 111.617 66.4773 110.755 66.0935C109.894 65.7097 109.169 65.2046 108.581 64.5784C108.003 63.9521 107.558 63.2803 107.243 62.5632H107.015V66.3359H99.6572ZM106.939 54.6995C106.939 55.9521 107.106 57.043 107.441 57.9723C107.786 58.9016 108.277 59.6238 108.916 60.139C109.564 60.644 110.34 60.8965 111.242 60.8965C112.154 60.8965 112.929 60.644 113.568 60.139C114.206 59.6238 114.688 58.9016 115.012 57.9723C115.346 57.043 115.514 55.9521 115.514 54.6995C115.514 53.447 115.346 52.3612 115.012 51.442C114.688 50.5228 114.206 49.8106 113.568 49.3057C112.939 48.8006 112.164 48.5481 111.242 48.5481C110.33 48.5481 109.554 48.7955 108.916 49.2905C108.277 49.7854 107.786 50.4925 107.441 51.4117C107.106 52.3309 106.939 53.4268 106.939 54.6995Z" fill="white"/>
<path d="M127.041 66.3359V43.0632H134.476V66.3359H127.041ZM130.766 40.3511C129.722 40.3511 128.825 40.0077 128.075 39.3208C127.325 38.6238 126.95 37.7854 126.95 36.8057C126.95 35.8359 127.325 35.0077 128.075 34.3208C128.825 33.6238 129.722 33.2754 130.766 33.2754C131.82 33.2754 132.717 33.6238 133.457 34.3208C134.207 35.0077 134.582 35.8359 134.582 36.8057C134.582 37.7854 134.207 38.6238 133.457 39.3208C132.717 40.0077 131.82 40.3511 130.766 40.3511Z" fill="white"/>
<path d="M152.389 43.063V48.5176H137.657V43.063H152.389ZM140.743 37.4873H148.177V59.0176C148.177 59.4722 148.248 59.8408 148.39 60.1237C148.542 60.3964 148.76 60.5933 149.044 60.7146C149.328 60.8257 149.667 60.8813 150.063 60.8813C150.346 60.8813 150.645 60.856 150.96 60.8055C151.284 60.7449 151.527 60.6944 151.689 60.654L152.814 66.0024C152.459 66.1035 151.958 66.2297 151.309 66.3813C150.671 66.5327 149.906 66.6287 149.014 66.6691C147.27 66.75 145.775 66.5479 144.528 66.063C143.292 65.5681 142.344 64.8005 141.686 63.76C141.037 62.7197 140.723 61.4116 140.743 59.8357V37.4873Z" fill="white"/>
<path d="M176.276 50.1691L169.449 50.3509C169.379 49.8661 169.186 49.4368 168.871 49.063C168.558 48.6792 168.147 48.3813 167.641 48.1691C167.144 47.9469 166.566 47.8357 165.907 47.8357C165.046 47.8357 164.311 48.0075 163.703 48.3509C163.104 48.6944 162.811 49.159 162.821 49.7449C162.811 50.1994 162.993 50.5933 163.368 50.9267C163.754 51.26 164.438 51.5277 165.421 51.7297L169.92 52.5782C172.252 53.0227 173.985 53.76 175.12 54.7903C176.265 55.8206 176.843 57.1843 176.853 58.8813C176.843 60.4772 176.367 61.8661 175.424 63.0479C174.492 64.2297 173.215 65.1489 171.594 65.8055C169.971 66.4519 168.117 66.7752 166.029 66.7752C162.694 66.7752 160.064 66.0933 158.138 64.7297C156.224 63.356 155.128 61.5176 154.854 59.2146L162.197 59.0327C162.36 59.8813 162.781 60.5277 163.459 60.9722C164.139 61.4166 165.005 61.6389 166.059 61.6389C167.012 61.6389 167.787 61.4621 168.385 61.1085C168.983 60.7549 169.287 60.2853 169.298 59.6994C169.287 59.1741 169.054 58.7549 168.599 58.4419C168.142 58.1186 167.427 57.8661 166.454 57.6843L162.38 56.9116C160.039 56.4873 158.295 55.7045 157.15 54.563C156.005 53.4116 155.438 51.9469 155.448 50.1691C155.438 48.6135 155.853 47.2853 156.694 46.1843C157.536 45.0732 158.732 44.2246 160.283 43.6389C161.833 43.053 163.662 42.76 165.77 42.76C168.933 42.76 171.426 43.4216 173.25 44.7449C175.075 46.058 176.083 47.8661 176.276 50.1691Z" fill="white"/>
<path d="M55.2568 10H48.1216C46.3976 10 45 11.3929 45 13.1111V20.2222C45 21.9404 46.3976 23.3333 48.1216 23.3333H55.2568C56.9808 23.3333 58.3784 21.9404 58.3784 20.2222V13.1111C58.3784 11.3929 56.9808 10 55.2568 10Z" fill="#18181B" stroke="#27272A"/>
<path d="M73.0946 10H65.9595C64.2355 10 62.8379 11.3929 62.8379 13.1111V20.2222C62.8379 21.9404 64.2355 23.3333 65.9595 23.3333H73.0946C74.8187 23.3333 76.2163 21.9404 76.2163 20.2222V13.1111C76.2163 11.3929 74.8187 10 73.0946 10Z" fill="#4C1D95" stroke="#6D28D9"/>
<path d="M90.9325 10H83.7974C82.0734 10 80.6758 11.3929 80.6758 13.1111V20.2222C80.6758 21.9404 82.0734 23.3333 83.7974 23.3333H90.9325C92.6566 23.3333 94.0542 21.9404 94.0542 20.2222V13.1111C94.0542 11.3929 92.6566 10 90.9325 10Z" fill="#5B21B6" stroke="#7C3AED"/>
<path d="M108.769 10H101.634C99.9103 10 98.5127 11.3929 98.5127 13.1111V20.2222C98.5127 21.9404 99.9103 23.3333 101.634 23.3333H108.769C110.493 23.3333 111.891 21.9404 111.891 20.2222V13.1111C111.891 11.3929 110.493 10 108.769 10Z" fill="#6D28D9" stroke="#8B5CF6"/>
<path d="M126.607 10H119.472C117.748 10 116.351 11.3929 116.351 13.1111V20.2222C116.351 21.9404 117.748 23.3333 119.472 23.3333H126.607C128.331 23.3333 129.729 21.9404 129.729 20.2222V13.1111C129.729 11.3929 128.331 10 126.607 10Z" fill="#7C3AED" stroke="#A78BFA"/>
<path d="M144.445 10H137.31C135.586 10 134.188 11.3929 134.188 13.1111V20.2222C134.188 21.9404 135.586 23.3333 137.31 23.3333H144.445C146.169 23.3333 147.567 21.9404 147.567 20.2222V13.1111C147.567 11.3929 146.169 10 144.445 10Z" fill="#8B5CF6" stroke="#C4B5FD"/>
</g>
<defs>
<clipPath id="clip0_547_451">
<rect width="132" height="59" fill="white" transform="translate(45 8)"/>
</clipPath>
</defs>
</svg>
